<?xml version="1.0" standalone="no"?>
<!DOCTYPE svg PUBLIC "-//W3C//DTD SVG 20010904//EN"
 "http://www.w3.org/TR/2001/REC-SVG-20010904/DTD/svg10.dtd">
<svg version="1.0" xmlns="http://www.w3.org/2000/svg"
 width="1289.000000pt" height="586.000000pt" viewBox="0 0 1289.000000 586.000000"
 preserveAspectRatio="xMidYMid meet">

<g transform="translate(0.000000,586.000000) scale(0.100000,-0.100000)"
 stroke="none">
<path d="M250 5435 c0 -9 1060 -5129 1066 -5147 5 -17 45 -18 649 -18 604 0
644 1 649 18 6 19 1066 5137 1066 5146 0 3 -243 6 -539 6 l-539 0 -5 -22 c-3
-13 -132 -781 -287 -1708 -155 -927 -284 -1692 -287 -1700 -4 -8 -18 -82 -32
-164 l-26 -148 -304 1813 c-166 998 -308 1840 -313 1872 l-10 57 -544 0 c-299
0 -544 -2 -544 -5z" fill="#6D9773"/>
<path d="M3682 3582 c-149 -53 -227 -216 -176 -365 20 -59 89 -131 152 -160
70 -31 171 -29 238 5 95 49 145 126 152 234 4 61 1 80 -20 125 -33 72 -66 109
-126 142 -68 37 -150 44 -220 19z m128 -217 c0 -33 2 -35 35 -35 28 0 35 -4
35 -20 0 -16 -7 -20 -35 -20 -33 0 -35 -2 -35 -35 0 -31 -3 -35 -25 -35 -22 0
-25 4 -25 35 0 33 -2 35 -35 35 -28 0 -35 4 -35 20 0 16 7 20 35 20 33 0 35 2
35 35 0 31 3 35 25 35 22 0 25 -4 25 -35z" fill="#0C3B2E"/>
<path d="M4492 3582 c-149 -53 -227 -216 -176 -365 20 -59 89 -131 152 -160
70 -31 171 -29 238 5 95 49 145 126 152 234 4 61 1 80 -20 125 -33 72 -66 109
-126 142 -68 37 -150 44 -220 19z m148 -217 c0 -33 2 -35 35 -35 28 0 35 -4
35 -20 0 -16 -7 -20 -35 -20 -33 0 -35 -2 -35 -35 0 -31 -3 -35 -25 -35 -22 0
-25 4 -25 35 0 33 -2 35 -35 35 -28 0 -35 4 -35 20 0 16 7 20 35 20 33 0 35 2
35 35 0 31 3 35 25 35 22 0 25 -4 25 -35z" fill="#0C3B2E"/>
<path d="M7323 2008 c2 -1192 4 -1277 21 -1333 59 -199 159 -308 343 -372 l78
-28 348 -3 347 -3 0 214 0 215 -147 4 c-172 4 -201 14 -243 89 l-25 44 -3 718
-3 717 211 0 210 0 0 240 0 240 -210 0 -210 0 0 265 0 265 -360 0 -361 0 4
-1272z" fill="#0C3B2E"/>
<path d="M3715 2785 c-220 -48 -349 -171 -412 -395 -17 -61 -18 -120 -18 -855
0 -735 1 -794 18 -855 57 -200 158 -312 344 -377 l78 -28 414 -3 c466 -4 521
2 646 63 205 100 295 300 295 663 l0 112 -335 0 -335 0 0 -154 c0 -148 -1
-154 -24 -179 -34 -36 -52 -39 -229 -35 -156 3 -157 3 -184 31 l-28 27 -3 280
-3 280 571 0 572 0 -4 473 c-4 447 -6 476 -26 552 -62 225 -197 356 -414 400
-103 20 -830 21 -923 0z m638 -446 c55 -28 57 -34 57 -301 l0 -248 -235 0
-236 0 3 249 c4 325 -8 309 236 310 95 1 162 -3 175 -10z" fill="#0C3B2E"/>
<path d="M9005 2785 c-220 -48 -349 -171 -412 -395 -17 -61 -18 -120 -18 -855
0 -735 1 -794 18 -855 57 -200 158 -312 344 -377 l78 -28 459 -3 c516 -3 564
1 691 63 205 100 295 300 295 663 l0 112 -380 0 -380 0 0 -154 c0 -148 -1
-154 -24 -179 -32 -35 -55 -39 -185 -35 -105 3 -112 4 -138 31 l-28 27 -3 280
-3 280 571 0 572 0 -4 473 c-4 447 -6 476 -26 552 -62 225 -197 356 -414 400
-104 20 -919 21 -1013 0z m638 -446 c55 -28 57 -34 57 -301 l0 -248 -190 0
-191 0 3 249 c4 318 -1 309 191 310 61 1 118 -4 130 -10z" fill="#6D9773"/>
<path d="M11095 2785 c-208 -42 -347 -178 -407 -400 -19 -72 -21 -106 -22
-340 -1 -214 2 -274 17 -340 49 -224 177 -362 392 -421 48 -14 129 -18 413
-23 l354 -6 24 -28 c24 -28 24 -32 24 -218 l0 -191 -29 -29 -29 -29 -197 0
-197 0 -29 29 -29 29 0 131 0 131 -355 0 -355 0 0 -97 c0 -348 92 -550 295
-648 127 -62 175 -67 686 -63 l454 3 78 28 c186 65 287 177 344 377 16 57 18
105 18 375 0 270 -2 318 -18 375 -57 201 -158 312 -344 377 l-78 27 -362 6
-363 5 -27 28 c-28 27 -28 28 -31 188 -5 252 -8 249 241 249 103 0 186 -4 198
-10 35 -19 49 -64 49 -155 l0 -85 351 0 352 0 -6 138 c-6 148 -22 222 -67 318
-58 120 -152 200 -297 251 l-78 28 -450 2 c-354 1 -465 -1 -520 -12z" fill="#0C3B2E"/>
<path d="M6221 2725 c-52 -12 -105 -33 -203 -83 -5 -2 -8 8 -8 22 l0 26 -340
0 -340 0 0 -1215 0 -1215 370 0 370 0 2 975 3 975 28 27 c26 27 32 28 143 31
135 4 157 0 190 -35 l24 -26 0 -973 0 -974 375 0 376 0 -3 992 c-4 991 -4 993
-26 1073 -63 226 -197 356 -414 400 -101 20 -454 20 -547 0z" fill="#6D9773"/>
</g>
</svg>
